<mxfile host="app.diagrams.net" modified="2023-11-30T06:18:56.127Z" agent="Mozilla/5.0 (X11; Linux x86_64) AppleWebKit/537.36 (KHTML, like Gecko) Chrome/118.0.0.0 Safari/537.36" version="22.1.5" etag="SyFLj1f77-KEkcYEHGID" type="github">
  <diagram name="第 1 页" id="wxll2HeWDg_E2DR9Rwwi">
    <mxGraphModel>
      <root>
        <mxCell id="0" />
        <mxCell id="1" parent="0" />
      </root>
    </mxGraphModel>
  </diagram>
</mxfile>
